<?xml version="1.0" standalone="no"?>
<!DOCTYPE svg PUBLIC "-//W3C//DTD SVG 20010904//EN"
 "http://www.w3.org/TR/2001/REC-SVG-20010904/DTD/svg10.dtd">
<svg version="1.0" xmlns="http://www.w3.org/2000/svg"
 width="1280.000000pt" height="1280.000000pt" viewBox="0 0 1280.000000 1280.000000"
 preserveAspectRatio="xMidYMid meet">
<metadata>
Created by potrace 1.15, written by Peter Selinger 2001-2017
</metadata>
<g transform="translate(0.000000,1280.000000) scale(0.100000,-0.100000)"
fill="#ffc107" stroke="none">
<path d="M2479 12009 c-87 -13 -312 -66 -397 -95 -284 -94 -596 -324 -786
-578 -177 -236 -246 -384 -311 -666 -19 -80 -39 -189 -44 -242 -15 -133 -15
-7896 -1 -8022 24 -209 99 -472 179 -630 105 -206 294 -437 466 -571 230 -179
389 -258 654 -325 258 -65 -91 -60 4296 -60 4372 0 4031 -5 4290 59 230 57
372 121 569 259 234 164 428 390 556 647 92 185 158 422 180 647 7 69 10 1412
7 4058 -3 3717 -4 3960 -20 4040 -73 350 -141 521 -304 752 -104 149 -224 273
-364 377 -217 163 -371 237 -609 297 -279 69 80 64 -4320 63 -2192 -1 -4010
-5 -4041 -10z m7354 -1429 c260 -30 537 -213 677 -448 57 -97 107 -225 120
-307 7 -49 10 -1075 8 -3425 l-3 -3355 -29 -75 c-102 -269 -258 -450 -481
-560 -123 -60 -177 -78 -274 -91 -50 -6 -1237 -9 -3401 -7 l-3325 3 -104 37
c-304 109 -510 316 -618 623 l-28 80 0 3390 0 3390 23 70 c57 169 135 295 254
411 91 89 164 140 272 189 101 45 166 65 244 75 103 12 6560 12 6665 0z"/>
<path d="M8226 10019 c-279 -29 -606 -153 -836 -317 -115 -82 -291 -249 -376
-357 -218 -279 -343 -601 -375 -965 -35 -383 77 -812 298 -1148 67 -102 178
-236 257 -310 l57 -54 -21 -33 c-23 -37 -27 -109 -8 -150 6 -14 9 -27 7 -30
-3 -2 -27 7 -54 21 -38 19 -59 24 -88 19 -59 -9 -75 -23 -134 -127 l-55 -97
-26 19 c-44 31 -138 53 -195 45 -110 -14 -167 -54 -249 -172 -68 -97 -154
-181 -191 -187 -18 -3 -95 -7 -172 -10 -276 -9 -495 -83 -717 -243 -70 -51
-131 -110 -275 -267 -33 -36 -72 -66 -110 -84 -52 -24 -71 -27 -185 -30 l-128
-4 0 161 c0 154 -8 207 -33 223 -7 4 -96 8 -199 8 l-188 0 0 129 c0 115 -2
131 -21 155 l-20 26 -667 0 c-367 0 -672 -4 -678 -8 -34 -22 -34 -37 -34
-1487 l0 -1436 25 -24 24 -25 665 0 665 0 20 26 c19 24 21 40 21 185 l0 158
190 3 c166 3 192 5 207 21 16 15 18 41 21 208 l3 191 162 -5 c219 -7 317 -38
497 -160 70 -47 230 -126 257 -127 6 0 21 -16 33 -35 12 -19 40 -46 63 -59 23
-13 105 -60 182 -105 86 -50 150 -81 168 -81 32 0 97 27 97 41 0 5 23 9 51 9
46 0 55 4 88 38 20 20 48 58 63 85 l28 47 388 0 c431 0 455 3 534 63 59 45
102 113 118 185 15 72 8 128 -24 199 -25 53 -24 63 4 63 37 0 136 62 173 108
88 110 87 294 -1 395 -8 9 -13 18 -11 20 2 2 23 15 46 30 112 71 161 245 107
376 -8 19 -30 54 -50 78 l-35 43 34 29 c55 49 90 124 95 205 5 84 -7 135 -47
198 -26 41 -91 100 -122 110 -5 2 0 21 11 43 14 27 20 52 17 76 l-5 35 48 0
c66 -1 94 22 157 130 41 70 53 98 53 132 0 58 -22 96 -70 123 -22 13 -40 26
-40 30 0 3 18 9 39 13 47 7 93 44 111 87 9 20 18 29 29 26 106 -32 227 -59
321 -73 157 -22 429 -15 585 16 555 110 1015 458 1265 957 66 132 94 208 129
351 44 176 55 260 55 447 0 394 -113 748 -341 1068 -68 96 -251 288 -343 362
-219 174 -495 306 -765 365 -171 37 -397 48 -579 29z"/>
</g>
</svg>
