<svg xmlns="http://www.w3.org/2000/svg" width="37.853" height="37.853" fill="#4A61DD" xmlns:v="https://vecta.io/nano"><path d="M34.087 0H8.755v30.318L3.764 34.91l1.354 1.473.677.736h0l.678.733 5.141-4.729h22.475L34.087 0h0zm-2 31.125H13.786l.907-.836-.678-.734 1.967-1.809c1.477 1.253 3.36 1.961 5.313 1.961a8.19 8.19 0 0 0 5.555-2.168 8.22 8.22 0 0 0 .484-11.598 8.23 8.23 0 0 0-6.042-2.649c-2.062 0-4.036.771-5.555 2.167-3.082 2.835-3.492 7.496-1.111 10.814l-1.966 1.81-.678-.735-1.229 1.131V2h21.333l.001 29.125h0zm-15.359-5.424a6.22 6.22 0 0 1 .365-8.771c1.149-1.059 2.642-1.641 4.201-1.641 1.731 0 3.397.73 4.569 2.004a6.22 6.22 0 0 1-.367 8.771c-1.147 1.059-2.639 1.641-4.199 1.641a6.21 6.21 0 0 1-4.569-2.004zM28.421 7h-14.25V5h14.25v2zm0 5.25h-14.25v-2h14.25v2z"/></svg>