<?xml version="1.0" encoding="utf-8"?>
<!-- Generator: Adobe Illustrator 25.3.1, SVG Export Plug-In . SVG Version: 6.00 Build 0)  -->
<svg version="1.1" id="Layer_1" xmlns="http://www.w3.org/2000/svg" xmlns:xlink="http://www.w3.org/1999/xlink" x="0px" y="0px"
	 viewBox="0 0 1500 1500" style="enable-background:new 0 0 1500 1500;" xml:space="preserve">
<style type="text/css">
	.st0{fill:url(#SVGID_1_);}
	.st1{fill:#FFFFFF;}
</style>
<g>
	<linearGradient id="SVGID_1_" gradientUnits="userSpaceOnUse" x1="333.8689" y1="813.0694" x2="1166.1311" y2="813.0694">
		<stop  offset="0" style="stop-color:#D71C5D"/>
		<stop  offset="1" style="stop-color:#FF9017"/>
	</linearGradient>
	<circle class="st0" cx="750" cy="813.07" r="416.13"/>
	<g>
		<g>
			<path class="st1" d="M722.8,1089.02c-14.76,0-29.25-2.87-43.09-8.52c-23.46-9.58-42.96-26.63-55.5-48.4l-0.26,0.11
				c-10.08,4.15-20.7,6.25-31.57,6.25c-16.47,0-32.43-4.86-46.16-14.07c-23.03-15.42-36.77-41.18-36.77-68.91V691.41
				c0-27.91,13.9-53.78,37.19-69.19c13.65-9.02,29.47-13.79,45.75-13.79c10.99,0,21.71,2.15,31.9,6.39
				c12.55-21.7,32.02-38.7,55.42-48.25c13.83-5.65,28.33-8.52,43.09-8.52c15.12,0,29.95,3,44.07,8.93l184.31,77.37
				c15.8,6.64,28.07,19.02,34.55,34.89c6.49,15.86,6.41,33.3-0.23,49.11c-6.63,15.81-19.02,28.09-34.89,34.56
				c-7.77,3.18-15.94,4.79-24.27,4.79c-8.53,0-16.89-1.69-24.84-5.02L645.63,655.27v336.52l255.88-107.4c7.91-3.32,16.24-5,24.76-5
				c25.96,0,49.21,15.44,59.23,39.34c6.64,15.81,6.72,33.25,0.23,49.11c-6.48,15.86-18.75,28.25-34.55,34.88l-184.32,77.36
				C752.77,1086.01,737.94,1089.02,722.8,1089.02z M651.15,1020.82c9.39,14.71,23.18,26.26,39.49,32.92
				c10.34,4.23,21.16,6.37,32.16,6.37c11.27,0,22.34-2.24,32.89-6.67L940,976.07c8.68-3.65,15.43-10.46,19-19.18
				s3.52-18.3-0.13-26.98c-5.52-13.13-18.31-21.62-32.58-21.62c-4.68,0-9.25,0.92-13.59,2.75L651.15,1020.82z M592.39,637.49
				c-10.58,0-20.85,3.1-29.72,8.96c-15.14,10.01-24.17,26.82-24.17,44.96v264.07c0,18.28,8.71,34.6,23.89,44.78
				c9.03,6.05,19.35,9.24,29.84,9.24c7.01,0,13.96-1.4,20.67-4.15l3.68-1.51V643.11l-3.08-1.31
				C606.79,638.94,599.68,637.49,592.39,637.49z M912.69,736.03c4.38,1.84,8.97,2.77,13.65,2.77c4.56,0,9.05-0.89,13.35-2.65
				c8.73-3.57,15.54-10.32,19.18-18.99c3.65-8.69,3.69-18.28,0.13-27c-3.56-8.71-10.31-15.52-19-19.16l-184.31-77.37
				c-10.55-4.42-21.62-6.67-32.89-6.67c-11,0-21.82,2.14-32.15,6.37c-16.58,6.77-30.1,18.07-39.5,32.92L912.69,736.03z"/>
		</g>
	</g>
</g>
</svg>
