<?xml version="1.0" encoding="utf-8"?>
<!-- Generator: Adobe Illustrator 25.3.1, SVG Export Plug-In . SVG Version: 6.00 Build 0)  -->
<svg version="1.1" id="Layer_1" xmlns="http://www.w3.org/2000/svg" xmlns:xlink="http://www.w3.org/1999/xlink" x="0px" y="0px"
	 viewBox="0 0 1500 1500" style="enable-background:new 0 0 1500 1500;" xml:space="preserve">
<style type="text/css">
	.st0{fill:url(#SVGID_1_);}
	.st1{fill:#FFFFFF;}
	.st2{fill:#F4F4F4;}
</style>
<g>
	<g>
		<linearGradient id="SVGID_1_" gradientUnits="userSpaceOnUse" x1="150.0061" y1="750" x2="348.6618" y2="750">
			<stop  offset="0" style="stop-color:#D71C5D"/>
			<stop  offset="0.109" style="stop-color:#DC2B54"/>
			<stop  offset="0.5225" style="stop-color:#EF6233"/>
			<stop  offset="0.8319" style="stop-color:#FB831F"/>
			<stop  offset="1" style="stop-color:#FF9017"/>
		</linearGradient>
		<circle class="st0" cx="249.33" cy="750" r="99.33"/>
		<g>
			<g>
				<path class="st1" d="M242.84,815.87c-3.52,0-6.98-0.69-10.29-2.03c-5.6-2.29-10.25-6.36-13.25-11.55l-0.06,0.03
					c-2.41,0.99-4.94,1.49-7.54,1.49c-3.93,0-7.74-1.16-11.02-3.36c-5.5-3.68-8.78-9.83-8.78-16.45v-63.03
					c0-6.66,3.32-12.84,8.88-16.52c3.26-2.15,7.03-3.29,10.92-3.29c2.62,0,5.18,0.51,7.61,1.53c3-5.18,7.64-9.24,13.23-11.52
					c3.3-1.35,6.76-2.03,10.29-2.03c3.61,0,7.15,0.72,10.52,2.13l43.99,18.47c3.77,1.58,6.7,4.54,8.25,8.33
					c1.55,3.79,1.53,7.95-0.05,11.72c-1.58,3.77-4.54,6.7-8.33,8.25c-1.85,0.76-3.8,1.14-5.79,1.14c-2.04,0-4.03-0.4-5.93-1.2
					l-61.07-25.64v80.33l61.08-25.64c1.89-0.79,3.88-1.19,5.91-1.19c6.2,0,11.75,3.69,14.14,9.39c1.58,3.77,1.6,7.94,0.05,11.72
					c-1.55,3.79-4.48,6.74-8.25,8.33l-44,18.47C250,815.15,246.46,815.87,242.84,815.87z M225.74,799.59
					c2.24,3.51,5.53,6.27,9.43,7.86c2.47,1.01,5.05,1.52,7.68,1.52c2.69,0,5.33-0.53,7.85-1.59l43.99-18.47
					c2.07-0.87,3.68-2.5,4.54-4.58s0.84-4.37-0.03-6.44c-1.32-3.13-4.37-5.16-7.78-5.16c-1.12,0-2.21,0.22-3.24,0.66L225.74,799.59z
					 M211.71,708.09c-2.53,0-4.98,0.74-7.09,2.14c-3.61,2.39-5.77,6.4-5.77,10.73v63.03c0,4.36,2.08,8.26,5.7,10.69
					c2.16,1.44,4.62,2.21,7.12,2.21c1.67,0,3.33-0.33,4.93-0.99l0.88-0.36v-86.1l-0.74-0.31
					C215.15,708.44,213.45,708.09,211.71,708.09z M288.17,731.61c1.05,0.44,2.14,0.66,3.26,0.66c1.09,0,2.16-0.21,3.19-0.63
					c2.08-0.85,3.71-2.46,4.58-4.53c0.87-2.07,0.88-4.36,0.03-6.44c-0.85-2.08-2.46-3.7-4.54-4.57l-43.99-18.47
					c-2.52-1.06-5.16-1.59-7.85-1.59c-2.63,0-5.21,0.51-7.67,1.52c-3.96,1.62-7.18,4.31-9.43,7.86L288.17,731.61z"/>
			</g>
		</g>
	</g>
	<g>
		<g>
			<path class="st2" d="M242.87,815.5c-3.51,0-6.96-0.68-10.25-2.03c-5.58-2.28-10.22-6.34-13.2-11.51l-0.06,0.03
				c-2.4,0.99-4.92,1.49-7.51,1.49c-3.92,0-7.71-1.16-10.98-3.35c-5.48-3.67-8.75-9.8-8.75-16.39v-62.82
				c0-6.64,3.31-12.79,8.85-16.46c3.25-2.15,7.01-3.28,10.88-3.28c2.61,0,5.17,0.51,7.59,1.52c2.99-5.16,7.62-9.21,13.18-11.48
				c3.29-1.34,6.74-2.03,10.25-2.03c3.6,0,7.12,0.71,10.48,2.12l43.85,18.41c3.76,1.58,6.68,4.53,8.22,8.3
				c1.54,3.77,1.52,7.92-0.05,11.68c-1.58,3.76-4.53,6.68-8.3,8.22c-1.85,0.76-3.79,1.14-5.77,1.14c-2.03,0-4.02-0.4-5.91-1.19
				l-60.87-25.55v80.05l60.87-25.55c1.88-0.79,3.86-1.19,5.89-1.19c6.18,0,11.71,3.67,14.09,9.36c1.58,3.76,1.6,7.91,0.05,11.68
				c-1.54,3.77-4.46,6.72-8.22,8.3l-43.85,18.4C250,814.79,246.47,815.5,242.87,815.5z M225.82,799.28c2.23,3.5,5.51,6.25,9.39,7.83
				c2.46,1.01,5.03,1.51,7.65,1.51c2.68,0,5.31-0.53,7.82-1.59l43.84-18.41c2.07-0.87,3.67-2.49,4.52-4.56
				c0.85-2.07,0.84-4.35-0.03-6.42c-1.31-3.12-4.35-5.14-7.75-5.14c-1.11,0-2.2,0.22-3.23,0.65L225.82,799.28z M211.84,708.09
				c-2.52,0-4.96,0.74-7.07,2.13c-3.6,2.38-5.75,6.38-5.75,10.7v62.82c0,4.35,2.07,8.23,5.68,10.65c2.15,1.44,4.6,2.2,7.1,2.2
				c1.67,0,3.32-0.33,4.92-0.99l0.88-0.36v-85.81l-0.73-0.31C215.27,708.44,213.58,708.09,211.84,708.09z M288.04,731.53
				c1.04,0.44,2.13,0.66,3.25,0.66c1.09,0,2.15-0.21,3.18-0.63c2.08-0.85,3.7-2.45,4.56-4.52c0.87-2.07,0.88-4.35,0.03-6.42
				s-2.45-3.69-4.52-4.56l-43.84-18.41c-2.51-1.05-5.14-1.59-7.82-1.59c-2.62,0-5.19,0.51-7.65,1.51c-3.94,1.61-7.16,4.3-9.4,7.83
				L288.04,731.53z"/>
		</g>
	</g>
	<g>
		<path d="M429.81,807.8c-6.65-3.74-11.76-9.09-15.33-16.06s-5.35-15.22-5.35-24.75v-34.17c0-9.53,1.78-17.78,5.35-24.75
			s8.68-12.33,15.33-16.1c6.65-3.77,14.49-5.65,23.51-5.65c7.48,0,14.26,1.6,20.34,4.79c6.08,3.2,11.13,7.81,15.16,13.83
			c4.02,6.03,6.78,13.15,8.27,21.37h-21.07c-1.03-3.99-2.65-7.49-4.88-10.49c-2.22-3-4.87-5.29-7.92-6.89
			c-3.06-1.6-6.36-2.4-9.89-2.4c-4.74,0-8.84,1.07-12.29,3.21c-3.46,2.14-6.12,5.18-8.01,9.12c-1.88,3.94-2.82,8.6-2.82,13.96v34.17
			c0,5.37,0.94,10.02,2.82,13.96c1.89,3.94,4.55,6.97,8.01,9.08c3.45,2.11,7.55,3.17,12.29,3.17c3.59,0,6.92-0.77,9.97-2.31
			c3.06-1.54,5.7-3.8,7.92-6.77c2.22-2.97,3.82-6.54,4.8-10.71h21.07c-1.54,8.22-4.32,15.34-8.35,21.37
			c-4.03,6.03-9.08,10.63-15.16,13.83s-12.83,4.79-20.25,4.79C444.29,813.41,436.46,811.54,429.81,807.8z"/>
		<path d="M524.59,687.6h20.47v124.53h-20.47V687.6z M535.46,740.78h70.83v19.61h-70.83V740.78z M594.05,687.6h20.47v124.53h-20.47
			V687.6z"/>
		<path d="M682.8,687.6h14.9l46.77,124.53h-22.02l-32.2-92.76l-32.2,92.76h-22.01L682.8,687.6z M658.05,768.87h65.52v19.61h-65.52
			V768.87z"/>
		<path d="M786.02,812.12h-20.9V687.6h20.9V812.12z"/>
		<path d="M818.66,687.6h22.27l53.61,95.84l-2.06,2.23V687.6h19.87v124.45h-22.44l-53.44-94.38l2.06-2.23v96.61h-19.87V687.6z"/>
		<path d="M945.87,687.6h20.47v124.53h-20.47V687.6z M955.72,744.21h39.83c3.31,0,6.21-0.76,8.69-2.27
			c2.49-1.51,4.43-3.67,5.82-6.47s2.1-6.03,2.1-9.68c0-3.71-0.69-6.96-2.06-9.76s-3.31-4.97-5.82-6.51
			c-2.51-1.54-5.42-2.31-8.73-2.31h-39.83V687.6h39.23c7.59,0,14.27,1.59,20.04,4.75c5.76,3.17,10.25,7.64,13.44,13.4
			c3.2,5.77,4.8,12.45,4.8,20.04c0,7.59-1.6,14.26-4.8,20c-3.2,5.74-7.68,10.18-13.44,13.32c-5.77,3.14-12.45,4.71-20.04,4.71
			h-39.23V744.21z"/>
		<path d="M1059.45,687.6h20.47v124.53h-20.47V687.6z M1069.04,792.51h72.11v19.61h-72.11V792.51z"/>
		<path d="M1199.16,687.6h14.9l46.77,124.53h-22.02l-32.2-92.76l-32.2,92.76h-22.01L1199.16,687.6z M1174.41,768.87h65.52v19.61
			h-65.52V768.87z"/>
		<path d="M1312.66,762.79v49.33h-20.38v-49.33l-37.35-75.2h22.01l25.52,54.9l25.52-54.9h22.01L1312.66,762.79z"/>
	</g>
</g>
</svg>
