<?xml version="1.0" encoding="iso-8859-1"?>
<!-- Generator: Adobe Illustrator 19.0.0, SVG Export Plug-In . SVG Version: 6.00 Build 0)  -->
<svg version="1.1" id="Layer_1" xmlns="http://www.w3.org/2000/svg" xmlns:xlink="http://www.w3.org/1999/xlink" x="0px" y="0px"
	 viewBox="0 0 512 512" style="enable-background:new 0 0 512 512;" xml:space="preserve">
<path style="fill:#4A61DD;" d="M512,474.074C512,494.933,494.933,512,474.074,512H37.926C17.067,512,0,494.933,0,474.074V37.926
	C0,17.067,17.067,0,37.926,0h436.148C494.933,0,512,17.067,512,37.926V474.074z"/>
<path style="fill:#4A61DD;" d="M493.037,405.246c0,48.286-39.506,87.791-87.791,87.791H106.754
	c-48.286,0-87.791-39.506-87.791-87.791V106.754c0-48.286,39.506-87.791,87.791-87.791h298.491
	c48.286,0,87.791,39.506,87.791,87.791V405.246z"/>
<circle style="fill:#FFF;" cx="256" cy="256" r="56.889"/>
<path style="fill:#4A61DD;" d="M256,199.111c-2.766,0-5.466,0.264-8.127,0.646c20.668,3.954,36.571,27.591,36.571,56.243
	s-15.903,52.289-36.571,56.243c2.662,0.382,5.361,0.646,8.127,0.646c31.419,0,56.889-25.47,56.889-56.889
	S287.419,199.111,256,199.111z"/>
<circle style="fill:#FFF;" cx="369.778" cy="142.222" r="56.889"/>
<path style="fill:#4A61DD;" d="M369.778,85.333c-2.766,0-5.466,0.264-8.127,0.646c20.668,3.954,36.571,27.591,36.571,56.243
	s-15.903,52.289-36.571,56.243c2.662,0.382,5.361,0.646,8.127,0.646c31.419,0,56.889-25.47,56.889-56.889
	S401.197,85.333,369.778,85.333z"/>
<circle style="fill:#FFF;" cx="142.222" cy="142.222" r="56.889"/>
<path style="fill:#4A61DD;" d="M142.222,85.333c-2.766,0-5.466,0.264-8.127,0.646c20.668,3.954,36.571,27.591,36.571,56.243
	s-15.903,52.289-36.571,56.243c2.662,0.382,5.361,0.646,8.127,0.646c31.419,0,56.889-25.47,56.889-56.889
	S173.641,85.333,142.222,85.333z"/>
<circle style="fill:#FFF;" cx="369.778" cy="369.778" r="56.889"/>
<path style="fill:#4A61DD;" d="M369.778,312.889c-2.766,0-5.466,0.264-8.127,0.646c20.668,3.954,36.571,27.591,36.571,56.243
	c0,28.652-15.903,52.289-36.571,56.243c2.662,0.382,5.361,0.646,8.127,0.646c31.419,0,56.889-25.47,56.889-56.889
	S401.197,312.889,369.778,312.889z"/>
<circle style="fill:#FFF;" cx="142.222" cy="369.778" r="56.889"/>
<path style="fill:#4A61DD;" d="M142.222,312.889c-2.766,0-5.466,0.264-8.127,0.646c20.668,3.954,36.571,27.591,36.571,56.243
	c0,28.652-15.903,52.289-36.571,56.243c2.662,0.382,5.361,0.646,8.127,0.646c31.419,0,56.889-25.47,56.889-56.889
	S173.641,312.889,142.222,312.889z"/>
<g>
</g>
<g>
</g>
<g>
</g>
<g>
</g>
<g>
</g>
<g>
</g>
<g>
</g>
<g>
</g>
<g>
</g>
<g>
</g>
<g>
</g>
<g>
</g>
<g>
</g>
<g>
</g>
<g>
</g>
</svg>
