<svg xmlns="http://www.w3.org/2000/svg" xmlns:xlink="http://www.w3.org/1999/xlink" viewBox="0 0 512 512" xmlns:v="https://vecta.io/nano"><g fill="#4a61dd"><path d="M512 474.074C512 494.933 494.933 512 474.074 512H37.926C17.067 512 0 494.933 0 474.074V37.926C0 17.067 17.067 0 37.926 0h436.148C494.933 0 512 17.067 512 37.926v436.148z"/><path d="M493.037 405.246c0 48.286-39.506 87.791-87.791 87.791H106.754c-48.286 0-87.791-39.506-87.791-87.791V106.754c0-48.286 39.506-87.791 87.791-87.791h298.491c48.286 0 87.791 39.506 87.791 87.791v298.492z"/></g><circle cx="256" cy="256" r="56.889" fill="#fff"/><use xlink:href="#B" fill="#4a61dd"/><circle cx="369.778" cy="142.222" r="56.889" fill="#fff"/><use xlink:href="#B" x="113.778" y="-113.778" fill="#4a61dd"/><circle cx="142.222" cy="142.222" r="56.889" fill="#fff"/><use xlink:href="#B" x="-113.778" y="-113.778" fill="#4a61dd"/><circle cx="369.778" cy="369.778" r="56.889" fill="#fff"/><use xlink:href="#B" x="113.778" y="113.778" fill="#4a61dd"/><circle cx="142.222" cy="369.778" r="56.889" fill="#fff"/><use xlink:href="#B" x="-113.778" y="113.778" fill="#4a61dd"/><defs ><path id="B" d="M256 199.111c-2.766 0-5.466.264-8.127.646 20.668 3.954 36.571 27.591 36.571 56.243s-15.903 52.289-36.571 56.243c2.662.382 5.361.646 8.127.646 31.419 0 56.889-25.47 56.889-56.889s-25.47-56.889-56.889-56.889z"/></defs></svg>