<?xml version="1.0" encoding="iso-8859-1"?>
<!-- Generator: Adobe Illustrator 19.0.0, SVG Export Plug-In . SVG Version: 6.00 Build 0)  -->
<svg version="1.1" id="Layer_1" xmlns="http://www.w3.org/2000/svg" xmlns:xlink="http://www.w3.org/1999/xlink" x="0px" y="0px"
	 viewBox="0 0 512 512" style="enable-background:new 0 0 512 512;" xml:space="preserve">
<path style="fill:#4A61DD;" d="M431.693,487.787l-5.443-13.605c-1.668-4.172-2.526-8.623-2.526-13.117v-93.05
	c0-49.562-17.376-97.556-49.105-135.63l-81.774-98.129c-0.992-1.19-1.535-2.689-1.535-4.238V98.666c0-1.027,0.239-2.041,0.698-2.961
	l31.816-63.631c1.839-3.677,2.796-7.732,2.796-11.843v-0.015C326.621,9.05,317.57,0,306.406,0h-13.982
	c-6.482,0-12.819,1.919-18.212,5.514l0,0c-11.028,7.352-25.395,7.352-36.424,0.001l-0.002-0.001C232.393,1.919,226.056,0,219.575,0
	h-13.981c-11.165,0-20.215,9.05-20.215,20.215v0.015c0,4.111,0.957,8.167,2.796,11.843l31.816,63.631
	c0.46,0.919,0.698,1.933,0.698,2.961v31.35c0,1.549-0.543,3.049-1.535,4.238l-81.774,98.129
	c-31.729,38.076-49.105,86.07-49.105,135.631v93.052c0,4.492-0.857,8.943-2.526,13.115l-5.443,13.607
	C75.667,499.384,84.209,512,96.699,512H415.3C427.792,512,436.333,499.384,431.693,487.787z"/>
<path style="fill:#4A61DD;" d="M256,130.486c-3.345,0-6.401-1.888-7.896-4.879l-30.897-61.793
	c-2.182-4.362-0.414-9.664,3.948-11.844c4.375-2.185,9.664-0.405,11.844,3.948l23,46.005l23-46.004
	c2.182-4.353,7.478-6.134,11.844-3.948c4.362,2.182,6.13,7.482,3.948,11.844l-30.897,61.793
	C262.401,128.598,259.345,130.486,256,130.486z"/>
<circle style="fill:#FFFFFF;" cx="256" cy="335.415" r="88.276"/>
<path style="fill:#4A61DD;" d="M176.414,487.787l2.999-13.607c0.919-4.171,1.393-8.621,1.393-13.115v-93.052
	c0-49.563,9.576-97.556,27.06-135.63l45.909-99.97v-35.31l-17.918-65.03c-1.013-3.678-1.54-7.732-1.54-11.843v-0.015
	c0-5.798,1.363-10.988,3.518-14.675c-0.014-0.01-0.03-0.015-0.045-0.025l-0.002-0.001C231.773,1.906,224.893,0,217.88,0h-12.286
	c-11.165,0-20.215,9.05-20.215,20.215v0.017c0,4.111,0.958,8.166,2.796,11.843l31.816,63.631c0.46,0.919,0.698,1.933,0.698,2.961
	v31.35c0,1.549-0.543,3.049-1.535,4.238l-81.774,98.129c-31.729,38.074-49.105,86.069-49.105,135.63v93.052
	c0,4.492-0.857,8.943-2.526,13.115l-5.443,13.605C75.667,499.384,84.208,512,96.699,512h88.748
	C178.563,512,173.857,499.384,176.414,487.787z"/>
<path style="fill:#4A61DD;" d="M253.774,97.47L233,55.918c-2.182-4.353-7.47-6.134-11.844-3.948
	c-4.362,2.182-6.13,7.482-3.948,11.844l30.897,61.793c1.154,2.307,3.243,3.932,5.671,4.567V97.47z"/>
<path style="fill:#4A61DD;" d="M388.414,467.862H123.586c-4.875,0-8.828,3.953-8.828,8.828l0,0c0,4.875,3.953,8.828,8.828,8.828
	h264.828c4.875,0,8.828-3.953,8.828-8.828l0,0C397.241,471.815,393.289,467.862,388.414,467.862z"/>
<path style="fill:#4A61DD;" d="M123.586,467.862c-4.875,0-8.828,3.953-8.828,8.828c0,4.875,3.953,8.828,8.828,8.828h53.327
	l2.499-11.337c0.451-2.047,0.789-4.164,1.022-6.318H123.586z"/>
<path style="fill:#4A61DD;" d="M292.659,356.642c0-14.359-8.47-23.16-25.41-26.866l-5.963-1.171v-24.681
	c4.552,0.953,8.145,3.651,9.937,7.247c1.516,3.042,4.61,4.973,8.011,4.973c6.927,0,11.421-7.636,7.733-13.5
	c-4.814-7.655-13.837-12.787-25.679-14.102v-4.263c0-3.358-2.722-6.079-6.079-6.079c-3.358,0-6.079,2.722-6.079,6.079v4.262
	c-18.794,2.046-29.788,12.332-29.788,28.066c0,13.763,8.536,22.962,24.483,26.667l5.304,1.251v25.938
	c-5.372-0.999-9.458-3.752-11.474-7.618c-1.567-3.006-4.61-4.946-8-4.946h-0.894c-6.932,0-11.373,7.613-7.731,13.51
	c4.961,8.034,14.753,13.096,28.098,14.216v2.867c0,3.358,2.722,6.079,6.079,6.079c3.358,0,6.079-2.721,6.079-6.079v-2.929
	C281.353,383.496,292.659,373.14,292.659,356.642z M238.464,314.954c0-5.775,4.362-10.145,10.664-11.126v22.221
	C242.164,324.15,238.464,320.35,238.464,314.954z M261.287,370.7v-23.872c8.617,1.939,12.647,5.777,12.647,11.932
	C273.932,365.464,269.268,369.862,261.287,370.7z"/>
<path style="fill:#4A61DD;" d="M286.897,132.414h-61.793c-4.875,0-8.828-3.953-8.828-8.828v-17.655c0-4.875,3.953-8.828,8.828-8.828
	h61.793c4.875,0,8.828,3.953,8.828,8.828v17.655C295.724,128.461,291.772,132.414,286.897,132.414z"/>
<path style="fill:#4A61DD;" d="M167.724,335.414c0,16.907,4.838,32.647,13.08,46.071v-13.47c0-33.088,4.356-65.401,12.396-94.605
	C177.46,289.352,167.724,311.239,167.724,335.414z"/>
<path style="fill:#4A61DD;" d="M247.172,123.586v-17.655c0-4.875,3.953-8.828,8.828-8.828h-30.897c-4.875,0-8.828,3.953-8.828,8.828
	v17.655c0,4.875,3.953,8.828,8.828,8.828H256C251.125,132.414,247.172,128.461,247.172,123.586z"/>
<g>
</g>
<g>
</g>
<g>
</g>
<g>
</g>
<g>
</g>
<g>
</g>
<g>
</g>
<g>
</g>
<g>
</g>
<g>
</g>
<g>
</g>
<g>
</g>
<g>
</g>
<g>
</g>
<g>
</g>
</svg>
