<?xml version="1.0" standalone="no"?>
<!DOCTYPE svg PUBLIC "-//W3C//DTD SVG 20010904//EN"
 "http://www.w3.org/TR/2001/REC-SVG-20010904/DTD/svg10.dtd">
<svg version="1.0" xmlns="http://www.w3.org/2000/svg"
 width="1280.000000pt" height="1268.000000pt" viewBox="0 0 1280.000000 1268.000000"
 preserveAspectRatio="xMidYMid meet">
<metadata>
Created by potrace 1.15, written by Peter Selinger 2001-2017
</metadata>
<g transform="translate(0.000000,1268.000000) scale(0.100000,-0.100000)"
fill="#ffc107" stroke="none">
<path d="M3650 11419 c-192 -24 -353 -105 -492 -246 -91 -92 -99 -107 -323
-553 -214 -426 -331 -674 -505 -1070 -37 -85 -113 -247 -167 -360 -55 -113
-126 -263 -158 -335 -32 -71 -78 -173 -102 -225 -158 -333 -203 -441 -252
-600 -76 -246 -132 -498 -175 -790 -104 -690 -113 -1191 -35 -1810 33 -268
151 -850 213 -1059 13 -42 46 -152 74 -246 87 -292 158 -468 317 -786 361
-721 857 -1338 1398 -1737 350 -259 505 -358 702 -453 511 -244 1058 -409
1495 -449 748 -68 1219 -81 1510 -40 591 84 932 192 1540 488 124 60 268 138
320 174 334 226 664 489 847 675 121 123 393 451 522 630 208 288 445 709 541
963 26 69 67 172 90 230 120 298 215 596 270 845 17 77 42 185 56 240 52 205
119 621 150 930 17 181 15 555 -5 885 -27 434 -128 824 -414 1610 -41 113 -93
266 -117 340 -76 243 -286 783 -440 1131 -174 395 -454 882 -590 1030 -119
129 -136 144 -378 334 -257 200 -570 249 -847 133 -94 -40 -222 -124 -280
-184 -62 -63 -132 -171 -156 -239 -55 -156 -73 -400 -49 -675 9 -106 14 -123
55 -209 57 -118 244 -449 396 -701 134 -223 276 -474 342 -606 114 -228 213
-499 257 -705 16 -75 52 -215 80 -311 57 -200 110 -423 136 -583 26 -153 26
-765 1 -955 -31 -238 -66 -455 -90 -565 -39 -178 -183 -657 -249 -830 -113
-297 -289 -620 -452 -830 -176 -226 -447 -481 -677 -638 -313 -213 -571 -338
-914 -441 -412 -124 -645 -142 -969 -75 -299 62 -876 323 -1140 516 -246 180
-392 312 -591 538 -271 307 -421 564 -582 995 -74 197 -91 252 -168 570 -99
402 -122 538 -161 935 -28 295 -28 411 1 715 42 430 64 520 261 1098 89 259
120 336 218 535 117 238 159 312 325 572 99 154 130 215 161 320 61 199 71
252 86 439 8 105 19 229 24 276 6 47 15 130 21 185 21 184 1 370 -53 498 -56
134 -202 296 -328 364 -159 87 -385 133 -550 112z m-1080 -5156 c0 -21 5 -121
10 -223 5 -101 6 -188 2 -192 -4 -3 -80 -10 -169 -14 l-162 -7 -5 24 c-3 13
-7 116 -8 229 l-3 205 90 6 c50 3 125 6 168 7 l77 2 0 -37z m8028 -189 c22 -6
22 -9 21 -143 -1 -75 -4 -176 -8 -226 l-6 -90 -46 -9 c-31 -6 -88 -4 -170 5
l-124 14 1 55 c2 77 33 380 39 391 7 10 256 12 293 3z m-7696 -1838 c24 -23
180 -374 176 -396 -2 -15 -37 -36 -142 -85 -77 -36 -147 -65 -157 -65 -10 0
-25 12 -33 28 -32 62 -156 372 -156 390 0 14 25 30 98 65 98 47 167 75 189 76
6 1 18 -5 25 -13z m7149 -256 c77 -39 142 -76 145 -84 8 -20 -161 -386 -185
-401 -17 -10 -262 116 -311 160 -28 25 -25 42 15 103 20 28 40 63 45 77 15 41
134 215 147 215 2 0 66 -32 144 -70z m-5786 -1522 c132 -92 191 -139 193 -154
2 -14 -24 -58 -73 -125 -96 -130 -110 -142 -138 -127 -62 32 -377 262 -374
272 8 21 188 266 196 266 4 0 92 -60 196 -132z m4402 -10 c33 -37 163 -236
163 -250 0 -14 -12 -23 -175 -125 -140 -89 -199 -123 -211 -123 -13 0 -194
265 -194 283 0 13 63 54 330 214 46 28 62 28 87 1z"/>
</g>
</svg>
