<svg xmlns="http://www.w3.org/2000/svg" viewBox="0 0 512 512" xmlns:v="https://vecta.io/nano"><g fill="#4a61dd"><path d="M431.693 487.787l-5.443-13.605a35.33 35.33 0 0 1-2.526-13.117v-93.05a211.86 211.86 0 0 0-49.105-135.63l-81.774-98.129c-.992-1.19-1.535-2.689-1.535-4.238V98.666c0-1.027.239-2.041.698-2.961l31.816-63.631c1.839-3.677 2.796-7.732 2.796-11.843v-.015C326.621 9.05 317.57 0 306.406 0h-13.982c-6.482 0-12.819 1.919-18.212 5.514h0c-11.028 7.352-25.395 7.352-36.424.001l-.002-.001C232.393 1.919 226.056 0 219.575 0h-13.981c-11.165 0-20.215 9.05-20.215 20.215v.015c0 4.111.957 8.167 2.796 11.843l31.816 63.631c.46.919.698 1.933.698 2.961v31.35c0 1.549-.543 3.049-1.535 4.238l-81.774 98.129a211.87 211.87 0 0 0-49.105 135.631v93.052a35.31 35.31 0 0 1-2.526 13.115l-5.443 13.607C75.667 499.384 84.209 512 96.699 512H415.3c12.492 0 21.033-12.616 16.393-24.213z"/><path d="M256 130.486c-3.345 0-6.401-1.888-7.896-4.879l-30.897-61.793c-2.182-4.362-.414-9.664 3.948-11.844a8.83 8.83 0 0 1 11.844 3.948l23 46.005 23-46.004c2.182-4.353 7.478-6.134 11.844-3.948a8.83 8.83 0 0 1 3.948 11.844l-30.897 61.793a8.82 8.82 0 0 1-7.894 4.878z"/></g><circle cx="256" cy="335.415" r="88.276" fill="#fff"/><g fill="#4a61dd"><path d="M176.414 487.787l2.999-13.607c.919-4.171 1.393-8.621 1.393-13.115v-93.052c0-49.563 9.576-97.556 27.06-135.63l45.909-99.97v-35.31l-17.918-65.03c-1.013-3.678-1.54-7.732-1.54-11.843v-.015c0-5.798 1.363-10.988 3.518-14.675-.014-.01-.03-.015-.045-.025l-.002-.001A38.7 38.7 0 0 0 217.88 0h-12.286c-11.165 0-20.215 9.05-20.215 20.215v.017a26.49 26.49 0 0 0 2.796 11.843l31.816 63.631c.46.919.698 1.933.698 2.961v31.35c0 1.549-.543 3.049-1.535 4.238l-81.774 98.129a211.86 211.86 0 0 0-49.105 135.63v93.052a35.31 35.31 0 0 1-2.526 13.115l-5.443 13.605C75.667 499.384 84.208 512 96.699 512h88.748c-6.884 0-11.59-12.616-9.033-24.213z"/><path d="M253.774 97.47L233 55.918c-2.182-4.353-7.47-6.134-11.844-3.948a8.83 8.83 0 0 0-3.948 11.844l30.897 61.793c1.154 2.307 3.243 3.932 5.671 4.567V97.47zm134.64 370.392H123.586a8.83 8.83 0 0 0-8.828 8.828h0a8.83 8.83 0 0 0 8.828 8.828h264.828a8.83 8.83 0 0 0 8.828-8.828h0a8.83 8.83 0 0 0-8.828-8.828z"/><path d="M123.586 467.862a8.83 8.83 0 0 0-8.828 8.828 8.83 8.83 0 0 0 8.828 8.828h53.327l2.499-11.337a58.82 58.82 0 0 0 1.022-6.318h-56.848zm169.073-111.22c0-14.359-8.47-23.16-25.41-26.866l-5.963-1.171v-24.681c4.552.953 8.145 3.651 9.937 7.247 1.516 3.042 4.61 4.973 8.011 4.973 6.927 0 11.421-7.636 7.733-13.5-4.814-7.655-13.837-12.787-25.679-14.102v-4.263a6.08 6.08 0 0 0-6.079-6.079 6.08 6.08 0 0 0-6.079 6.079v4.262c-18.794 2.046-29.788 12.332-29.788 28.066 0 13.763 8.536 22.962 24.483 26.667l5.304 1.251v25.938c-5.372-.999-9.458-3.752-11.474-7.618-1.567-3.006-4.61-4.946-8-4.946h-.894c-6.932 0-11.373 7.613-7.731 13.51 4.961 8.034 14.753 13.096 28.098 14.216v2.867a6.08 6.08 0 0 0 6.079 6.079 6.08 6.08 0 0 0 6.079-6.079v-2.929c20.067-2.067 31.373-12.423 31.373-28.921zm-54.195-41.688c0-5.775 4.362-10.145 10.664-11.126v22.221c-6.964-1.899-10.664-5.699-10.664-11.095zm22.823 55.746v-23.872c8.617 1.939 12.647 5.777 12.647 11.932-.002 6.704-4.666 11.102-12.647 11.94zm25.61-238.286h-61.793a8.83 8.83 0 0 1-8.828-8.828v-17.655a8.83 8.83 0 0 1 8.828-8.828h61.793a8.83 8.83 0 0 1 8.828 8.828v17.655a8.83 8.83 0 0 1-8.828 8.828zm-119.173 203c0 16.907 4.838 32.647 13.08 46.071v-13.47c0-33.088 4.356-65.401 12.396-94.605-15.74 15.942-25.476 37.829-25.476 62.004z"/><path d="M247.172 123.586v-17.655A8.83 8.83 0 0 1 256 97.103h-30.897a8.83 8.83 0 0 0-8.828 8.828v17.655a8.83 8.83 0 0 0 8.828 8.828H256a8.83 8.83 0 0 1-8.828-8.828z"/></g></svg>