<?xml version="1.0" standalone="no"?>
<!DOCTYPE svg PUBLIC "-//W3C//DTD SVG 20010904//EN"
 "http://www.w3.org/TR/2001/REC-SVG-20010904/DTD/svg10.dtd">
<svg version="1.0" xmlns="http://www.w3.org/2000/svg"
 width="1280.000000pt" height="1207.000000pt" viewBox="0 0 1280.000000 1207.000000"
 preserveAspectRatio="xMidYMid meet">
<metadata>
Created by potrace 1.15, written by Peter Selinger 2001-2017
</metadata>
<g transform="translate(0.000000,1207.000000) scale(0.100000,-0.100000)"
fill="#ffc107" stroke="none">
<path d="M7980 11963 c-357 -16 -754 -122 -1203 -321 l-148 -65 -167 81 c-413
201 -717 277 -1102 276 -228 0 -361 -20 -551 -84 -864 -288 -1338 -1220 -1159
-2276 74 -432 201 -714 476 -1055 144 -178 341 -377 789 -794 590 -549 930
-899 1208 -1243 l99 -124 -27 -28 -27 -28 -96 101 c-350 370 -865 873 -1152
1123 -805 701 -1491 1056 -2173 1125 -177 17 -626 7 -792 -19 -814 -127 -1409
-498 -1686 -1053 -168 -337 -200 -725 -93 -1142 44 -175 161 -454 264 -632 28
-48 50 -90 50 -94 0 -4 -18 -50 -41 -102 -140 -326 -245 -696 -285 -1004 -22
-171 -15 -476 14 -610 129 -595 561 -942 1267 -1016 135 -14 457 -6 605 16
685 100 1497 441 2380 999 804 508 1449 1082 1797 1598 42 62 80 115 84 116 5
2 9 -5 9 -15 0 -37 -244 -342 -431 -539 -232 -243 -389 -388 -874 -804 -401
-345 -582 -509 -740 -671 -515 -529 -754 -1011 -852 -1719 -25 -187 -23 -525
5 -690 95 -561 395 -933 864 -1074 171 -52 246 -61 493 -61 300 0 490 29 825
125 122 36 195 60 430 146 l76 28 112 -68 c288 -173 583 -288 882 -342 133
-25 430 -25 560 -1 193 36 391 116 549 221 449 299 735 797 843 1466 21 131
23 175 22 465 -1 267 -4 341 -21 450 -11 72 -20 131 -19 132 1 1 87 -74 192
-165 1065 -932 2125 -1681 3061 -2164 l212 -109 46 98 c102 217 188 473 226
668 19 94 17 345 -2 405 l-15 44 -129 22 c-969 164 -1947 701 -3043 1673 -200
178 -263 237 -232 219 392 -231 645 -338 994 -423 803 -196 1478 -77 1863 328
251 264 358 620 331 1098 -18 329 -93 636 -278 1135 l-23 60 56 90 c169 272
289 580 338 864 21 122 16 385 -9 507 -58 269 -170 478 -367 682 -502 520
-1426 753 -2420 610 -357 -51 -583 -120 -910 -278 -566 -272 -1157 -730 -1839
-1422 -131 -132 -235 -235 -230 -228 17 27 314 370 428 494 66 72 339 351 606
620 268 270 535 543 593 608 490 543 738 1011 856 1617 147 752 18 1414 -347
1794 -158 164 -381 281 -627 331 -71 15 -294 37 -320 33 -5 -1 -39 -3 -75 -5z"/>
</g>
</svg>
