<?xml version="1.0" encoding="utf-8"?>
<!-- Generator: Adobe Illustrator 25.0.1, SVG Export Plug-In . SVG Version: 6.00 Build 0)  -->
<svg version="1.0" id="Layer_1" xmlns="http://www.w3.org/2000/svg" xmlns:xlink="http://www.w3.org/1999/xlink" x="0px" y="0px"
	 viewBox="0 0 1200 832" style="enable-background:new 0 0 1200 832;" xml:space="preserve">
<style type="text/css">
	.st0{fill:#2B6AFF;}
	.st1{fill:#FEFEFE;}
	.st2{fill:none;}
</style>
<path class="st0" d="M965.9,412.2c0,67.4,0,134.8,0,202.2c0,20.4-1.5,40.6-5.7,60.7c-6.5,31.2-23.7,55.6-47.9,75.6
	c-19.5,16.1-42.1,24.8-67,28c-17.5,2.2-35.2,3.3-52.9,3.2c-131.3,0-262.6,0-393.9-0.1c-19.5,0.1-38.9-1.8-58-5.7
	c-22.3-4.7-41.4-15.2-58.2-30.3c-17.9-16.1-31.6-35.1-39-58.3c-4.2-13.3-6.3-26.9-7.4-40.7c-1.8-21.6-1.7-43.2-1.7-64.8
	c0-123,0-246,0.1-369c0-22.8,2.1-45.5,8.5-67.5c4.6-15.7,12.8-29.4,23-42c15.3-18.8,33.8-33.3,56.5-42.2c12.9-5,26.4-7.5,40.1-8.9
	c19.7-2.1,39.4-2.3,59.1-2.3c123.5,0,246.9,0,370.3,0c14.3,0,28.6,0.1,42.8,1.7c27,3.1,52.7,9.9,74.7,26.7
	c26.7,20.4,44.3,46.9,51.2,80.1c3.6,17.3,5.4,35,5.4,52.6C965.9,278.3,965.9,345.2,965.9,412.2z"/>
<path class="st1" d="M683.2,385.6c-4,6.2-8,12.5-11.9,18.7c-14.9,23.5-29.2,47.3-43.7,71c-4.6,7.5-10.1,14.3-17.3,19.6
	c-22,16.2-44.7-0.2-47.3-19.4c-1.8-12.4-2.9-24.9-3.1-37.4c-0.1-14.5,0-29,0-43.4c0-2.1-0.2-4.2-0.3-6.3c-1,0-1.1,0.8-1.4,1.2
	c-27.4,45.3-56.2,89.8-84.2,134.7c-1.7,2.7-3.3,5.5-5.1,8.2c-0.8,1.2-0.8,2,0.3,3.2c28.3,29.3,61.9,49.1,102.5,55.3
	c49.3,7.6,94.1-3.5,134.2-33.3c4.9-3.6,9.3-7.8,14.1-11.6c5.9-4.6,12.4-7.4,20.2-5.6c1.1,0.2,2,0.7,2.8,1.4c1.8,1.8,3.6,3.4,5.6,5
	c6,4.4,6.3,10.3,4.7,16.8c-2,7.7-7.3,13-13.2,17.8c-27.2,22.6-57.8,38.7-92.6,46c-66.6,14.1-127.3,0.7-180.8-41.4
	c-40.8-32.1-66.7-74.1-78.1-124.9c-5.9-26.3-6.5-52.9-2.5-79.6c12.2-83,71.4-145.9,137.7-171.1c21.4-8.2,43.9-12.7,66.8-13.4
	c25-0.8,49.5,1.4,73.5,9.1c32,10.1,61.2,27.5,85.3,50.8c33.3,32.2,54.3,71.1,63.1,116.6c4.3,22.2,5.3,44.6,1.7,66.9
	c-4.3,26.9-26.1,53.6-55.6,59.2c-29.2,5.6-56.4-9.5-68.2-38c-5.1-12.3-6.5-25.2-6.5-38.3c0-12.1,0-24.1,0-36.2c0-0.4,0-0.8-0.1-1.2
	L683.2,385.6z"/>
<path class="st0" d="M599.4,443.9v-18.1c0-24.9,0.1-49.9-0.2-74.8c-0.1-10.1-2.4-19.7-9.8-27.3c-6.7-6.7-16.8-8.6-25.5-4.9
	c-6,2.6-11.1,6.9-14.8,12.4c-8.8,12.5-16.2,25.9-24.5,38.7c-26.8,40.9-51.8,82.9-78.2,124c-2.1,3.3-3.9,3.4-5.7-0.3
	c-2.2-4.4-4.1-8.9-5.9-13.5c-7.7-19.4-11.7-40-12-60.9c-0.6-43.6,11.6-83.1,39.1-117.1c27-33.4,61.7-55.1,104.1-62.9
	c61.3-11.2,114.5,5.9,158.8,49.2c27.6,26.9,43.6,60.3,50,98.4c2.4,14,2.9,28.3,1.5,42.4c-1.1,10.4-5.3,19.5-13.6,26.2
	c-6.9,5.5-14.7,8.6-23.4,5.1c-9.2-3.6-13.9-11.1-15.5-20.7c-2.3-14-2-28.1-1.7-42.2c0.2-12,1-24.2-1.6-36.1
	c-3.1-13.8-11.1-23.6-25.4-27.2c-6.9-1.7-13.3,0.6-19.3,3.8c-9.1,4.9-16,12.3-21.8,20.6c-10.4,14.7-19.4,30.4-29,45.7
	c-8,12.8-16,25.6-24,38.4c-0.3,0.4-0.6,0.9-0.9,1.3L599.4,443.9z"/>
<rect x="200" y="16" class="st2" width="800" height="800"/>
</svg>
