<?xml version="1.0" encoding="utf-8"?>
<svg version="1.1" id="Layer_1" x="0px" y="0px" viewBox="649.454 0 1036.546 700.86" style="enable-background:new 0 0 1686 660;" xmlns="http://www.w3.org/2000/svg">
  <style type="text/css">
	.st0{display:none;fill:none;}
	.st1{display:none;fill:#333D47;}
	.st2{fill:#33E5E5;}
	.st3{fill:#36B8E0;}
	.st4{fill:#37A6DD;}
	.st5{fill:#20DBEF;}
	.st6{fill:#3A9ADB;}
	.st7{fill:#333D47;}
	.st8{fill:#FFFFFF;}
</style>
  <rect class="st0" width="1686" height="660"/>
  <rect x="0" class="st1" width="1686" height="660"/>
  <g>
    <g>
      <g>
        <g>
          <polygon class="st2" points="357.7,26 357.7,330 94.5,178 &#9;&#9;&#9;&#9;"/>
        </g>
        <polygon class="st3" points="357.7,330 94.5,482 94.5,178 &#9;&#9;&#9;"/>
        <polygon class="st4" points="357.7,330 357.7,634 94.5,482 &#9;&#9;&#9;"/>
        <g>
          <polygon class="st5" points="357.7,26 357.7,330 621,178 &#9;&#9;&#9;&#9;"/>
        </g>
        <polygon class="st3" points="357.7,330 621,482 621,178 &#9;&#9;&#9;"/>
        <polygon class="st6" points="357.7,330 357.7,634 621,482 &#9;&#9;&#9;"/>
      </g>
      <polygon class="st7" points="438.3,350.6 438.3,376.5 357.7,423 277.2,376.5 277.2,283.5 357.7,237 438.3,283.5 438.3,309.4 &#10;&#9;&#9;&#9;513.7,309.4 513.7,240 357.7,149.9 201.8,240 201.8,420 357.7,510.1 513.7,420 513.7,350.6 &#9;&#9;"/>
    </g>
    <g>
      <path class="st8" d="M1310.7,484.3h-267.6c-7,0-12.6-5.6-12.6-12.6v-38.9c0-7,5.6-12.6,12.6-12.6h267.6c7,0,12.6,5.6,12.6,12.6 v38.9C1323.3,478.7,1317.7,484.3,1310.7,484.3z"/>
      <g>
        <path class="st8" d="M923.3,366.4l64.3-30.3v-107l-114.2-53.5l-114.1,53.7c0,70.2,0,137.7,0,208h42.7c0.1-28.1,0.2-53.5,0.3-81.7 c62.2,27.8,124.3,55.5,186.5,83.3c0-14.2,0-42.7,0-42.7L923.3,366.4z M873.3,343.4c-23.8-11.9-47.7-23.7-71.5-35.6 c0-13,0-37.2,0-50.2c23.8-12,47.7-23.9,71.5-35.9c24.5,12,49,23.9,73.5,35.9c0,13,0,37.2,0,50.2 C922.4,319.7,897.9,331.6,873.3,343.4z"/>
        <polygon class="st8" points="1547.6,290.8 1547.6,267.7 1477.3,227.2 1407.1,267.7 1407.1,348.8 1477.3,389.4 1547.6,348.8 &#10;&#9;&#9;&#9;&#9;1547.6,324.9 1591.5,324.9 1591.5,373.8 1477.3,439.7 1363.2,373.8 1363.2,241.9 1477.3,176 1591.5,241.9 1591.5,290.8 &#9;&#9;&#9;"/>
        <polygon class="st8" points="1172.3,335.9 1031.2,412.1 1030.8,357.8 1121.1,309.1 1030.2,261.5 1029.9,207.2 1172,281.6 &#10;&#9;&#9;&#9;&#9;1322.7,200.3 1323,254.6 1223.2,308.5 1323.7,361.1 1324,415.4 &#9;&#9;&#9;"/>
      </g>
      <g>
        <path class="st7" d="M1089.8,470.6c-3.2-1.8-5.8-4.4-7.7-7.6c-1.9-3.2-2.8-6.8-2.8-10.7s0.9-7.5,2.8-10.7 c1.9-3.2,4.5-5.7,7.7-7.6c3.2-1.8,6.7-2.8,10.6-2.8c3,0,5.9,0.5,8.5,1.6c2.6,1.1,4.8,2.6,6.6,4.6l-4.4,4.4 c-1.3-1.5-2.9-2.6-4.7-3.4c-1.8-0.8-3.8-1.2-6-1.2c-2.6,0-5,0.6-7.3,1.9c-2.3,1.2-4,3-5.4,5.3c-1.4,2.3-2,4.9-2,7.9 c0,3,0.7,5.6,2,7.9c1.3,2.3,3.1,4,5.4,5.3c2.2,1.2,4.7,1.9,7.3,1.9c2.4,0,4.4-0.4,6-1.1c1.6-0.7,3.1-1.7,4.3-2.9 c0.8-0.8,1.5-1.9,2.1-3.1c0.6-1.2,1-2.6,1.2-4h-13.7v-5.6h19.6c0.2,1.1,0.3,2.1,0.3,3.3c0,2.6-0.4,5-1.2,7.3 c-0.8,2.3-2,4.4-3.8,6.1c-3.8,4-8.8,6-14.9,6C1096.5,473.3,1093,472.4,1089.8,470.6z"/>
        <path class="st7" d="M1138.2,432.1h7.2l15.1,40.3h-7l-3.6-10.3h-16.3l-3.7,10.3h-7L1138.2,432.1z M1147.9,456.3l-4.3-12l-1.6-4.7 h-0.3l-1.6,4.7l-4.3,12H1147.9z"/>
        <path class="st7" d="M1166,432.1h8.5l11.6,30.5h0.3l11.6-30.5h8.5v40.3h-6.2v-22.6l0.3-7.3h-0.3l-11.5,29.8h-5.1l-11.5-29.8h-0.3 l0.3,7.3v22.6h-6.2V432.1z"/>
        <path class="st7" d="M1215.9,432.1h24.5v6h-18.2v11.1h16.4v6h-16.4v11.1h18.2v6h-24.5V432.1z"/>
        <path class="st7" d="M1250.8,470.4c-2.7-1.9-4.5-4.7-5.5-8.2l6-2.4c0.6,2.2,1.7,4,3.2,5.4c1.5,1.4,3.3,2.1,5.5,2.1 c2,0,3.7-0.5,5.1-1.5c1.4-1,2.1-2.4,2.1-4.2c0-1.6-0.6-3-1.8-4.1c-1.2-1.1-3.3-2.1-6.4-3.2l-2.5-0.9c-2.7-0.9-5-2.3-6.8-4 c-1.8-1.8-2.8-4.1-2.8-7c0-2,0.5-3.8,1.6-5.5c1.1-1.7,2.6-3,4.5-4c1.9-1,4.1-1.5,6.6-1.5c3.5,0,6.3,0.9,8.4,2.6 c2.1,1.7,3.5,3.6,4.2,5.8l-5.7,2.4c-0.4-1.3-1.2-2.4-2.4-3.4c-1.2-1-2.7-1.5-4.5-1.5c-1.8,0-3.4,0.5-4.6,1.4 c-1.3,0.9-1.9,2.1-1.9,3.6c0,1.4,0.6,2.5,1.7,3.4c1.1,0.9,2.9,1.8,5.3,2.6l2.5,0.8c3.4,1.2,6.1,2.8,8,4.7 c1.9,1.9,2.8,4.5,2.8,7.7c0,2.6-0.7,4.8-2,6.6c-1.4,1.8-3.1,3.1-5.1,4c-2.1,0.9-4.2,1.3-6.4,1.3 C1256.4,473.3,1253.4,472.3,1250.8,470.4z"/>
      </g>
    </g>
  </g>
</svg>